PathFileType	4	(X/Y/Z)	OpenSim_Sub11_CSPreOp_Gyro.trc
DataRate	CameraRate	NumFrames	NumMarkers	Units	OrigDataRate	OrigDataStartFrame	OrigNumFrames
100	100	17	8	m	100	3239	3701
Frame#	Time	torso_imu_offset_imu	pelvis_imu_offset_imu	tibia_r_imu_offset_imu	femur_r_imu_offset_imu	tibia_l_imu_offset_imu	femur_l_imu_offset_imu	toes_r_imu_offset_imu	toes_l_imu_offset_imu
				X1	Y1	Z1	X2	Y2	Z2	X3	Y3	Z3	X4	Y4	Z4	X5	Y5	Z5	X6	Y6	Z6	X7	Y7	Z7	X8		Y8	Z8	

3239	32.38000000	-0.22700700	-0.29287600	-0.17931900	-0.27666300	0.20517200	0.16148000	-1.16087800	-0.39994800	0.99648000	-0.16703100	0.52503200	0.80851500	-0.25283900	-0.06884700	0.13069600	-0.31594700	-0.25442200	0.25392600	-0.62101100	1.19325300	0.06164600	-0.01951900	0.01774700	0.02760200
3240	32.39000000	-0.17733800	-0.28407700	-0.16158700	-0.25830800	0.20153300	0.18510900	-1.04261500	-0.36351400	1.25780900	-0.56701600	0.35874100	0.68289000	-0.14190200	-0.04990900	0.16362000	-0.18596100	-0.25548200	0.24322200	-0.62919100	1.47565900	0.18595800	-0.00765400	0.01630100	0.01823000
3241	32.40000000	-0.12725600	-0.29147400	-0.12085300	-0.25332100	0.19189200	0.20144300	-0.84411700	-0.30770600	1.51565800	-0.93075700	0.18212000	0.59838400	-0.04164300	-0.04244900	0.18252200	-0.05061400	-0.27069400	0.22680000	-0.64677800	1.73077100	0.27087200	-0.00787400	-0.00669400	0.00974700
3242	32.41000000	-0.09528500	-0.29973000	-0.08194700	-0.24011600	0.18915900	0.21125200	-0.60257500	-0.25423700	1.79010200	-1.24976500	0.01210700	0.54592300	-0.00065100	-0.03205700	0.18257000	0.01868000	-0.27242500	0.21964400	-0.66493400	1.96138300	0.33935500	-0.02940900	-0.00504600	0.02196900
3243	32.42000000	-0.08387200	-0.29264400	-0.05536900	-0.23491800	0.18930100	0.21167900	-0.41522700	-0.23235100	2.07771900	-1.53064500	-0.12353000	0.50310500	0.01381800	-0.03979800	0.22059800	0.00261800	-0.24025300	0.22124500	-0.66790700	2.11096900	0.37202200	-0.01671400	-0.01709700	0.02202300
3244	32.43000000	-0.09862500	-0.27578400	-0.03621400	-0.22548300	0.18585200	0.20762700	-0.30561100	-0.20387800	2.35480100	-1.76665100	-0.23673000	0.44692600	0.02347800	-0.03874400	0.26507300	-0.03910000	-0.19215300	0.20757700	-0.71656400	2.19962400	0.39982500	-0.00128000	0.00285000	0.02253900
3245	32.44000000	-0.10423900	-0.25414100	-0.02178800	-0.21217600	0.18841900	0.19752500	-0.26143800	-0.16284400	2.60870500	-1.95141600	-0.31042100	0.37772800	0.06580400	-0.02393200	0.28599300	-0.07710400	-0.14028400	0.17601300	-0.77153200	2.28322400	0.41891600	-0.03425500	-0.04392200	0.02997200
3246	32.45000000	-0.07562400	-0.23789100	0.00212200	-0.21149400	0.18018500	0.18580300	-0.26175100	-0.12420700	2.84374800	-2.04991000	-0.34846700	0.28900800	0.10578600	-0.02819100	0.28099600	-0.08193300	-0.10455300	0.15742700	-0.73209900	2.38556900	0.43131000	-0.03105000	-0.01563300	0.03877800
3247	32.46000000	-0.10397800	-0.21765800	0.00839500	-0.18476000	0.19015300	0.18750000	-0.25555300	-0.10080100	3.07268300	-2.08268400	-0.38284400	0.15807700	0.11470500	-0.03028200	0.29439700	-0.06598400	-0.09894600	0.15848600	-0.68626200	2.47240500	0.47791200	-0.05170100	-0.05853700	0.04451300
3248	32.47000000	-0.08754300	-0.20098500	0.01771100	-0.18027100	0.18263600	0.18974500	-0.15093000	-0.05190600	3.28270100	-2.04573500	-0.40497400	0.04265800	0.13247700	-0.01846700	0.30779600	-0.05051900	-0.12021100	0.16834700	-0.63829900	2.48085200	0.55915700	-0.04047400	-0.03080800	0.04679200
3249	32.48000000	-0.06233100	-0.18026800	0.02353600	-0.16608100	0.16622300	0.18589900	0.01625500	0.03452500	3.44141000	-1.94140800	-0.39024900	-0.09997900	0.16227400	-0.01649100	0.32846300	-0.05199800	-0.13529900	0.19328800	-0.60021700	2.34598900	0.63010100	-0.05645200	-0.06364000	0.04393700
3250	32.49000000	-0.08603700	-0.16172600	0.02220800	-0.14884100	0.15100600	0.18331600	0.13691400	0.13135600	3.55227700	-1.75782900	-0.33185900	-0.23369400	0.15176600	-0.01177600	0.33536500	-0.06519800	-0.15136400	0.21144800	-0.43575100	2.10816900	0.66975600	-0.01727800	-0.02982700	0.04419600
3251	32.50000000	-0.13678100	-0.13388300	0.00595000	-0.13469400	0.13463000	0.18243400	0.12644800	0.21211000	3.61139400	-1.51514400	-0.21772500	-0.38547900	0.15590200	0.00605200	0.33179400	-0.08519000	-0.16267800	0.23134800	-0.16865400	1.84926500	0.67577100	-0.04834300	-0.04969000	0.04997200
3252	32.51000000	-0.10153900	-0.11871300	-0.01225400	-0.11698400	0.10557900	0.17458800	-0.01065800	0.29474300	3.63411100	-1.23949200	-0.09726100	-0.47274100	0.14906900	0.00306300	0.33000000	-0.10132400	-0.16675800	0.24518900	0.06180800	1.63125400	0.68379400	-0.01504000	-0.04363300	0.05217400
3253	32.52000000	-0.08862600	-0.10067300	-0.02477100	-0.10225300	0.07398700	0.16422900	-0.09752800	0.39233700	3.62137500	-0.98983400	-0.04447600	-0.59151100	0.10290700	0.00326900	0.33166700	-0.09262600	-0.16989000	0.24574500	-0.10973200	1.72158300	0.77428800	-0.06539900	-0.05845600	0.07564300
3254	32.53000000	-0.12828100	-0.06992100	-0.03740100	-0.06855300	0.04581600	0.16257800	-0.00952000	0.40323400	3.56444700	-0.76094000	-0.03460300	-0.69617100	0.03461600	0.01201700	0.36639400	-0.07658200	-0.17047300	0.23522800	-0.32984700	2.23433500	0.94603600	-0.02090300	-0.04504500	0.07543200
3255	32.54000000	-0.10878000	-0.07050300	-0.04581700	-0.03426400	0.00824400	0.15971300	0.08667900	0.36330100	3.44728600	-0.52822200	-0.06577600	-0.79894500	0.01869700	0.01257300	0.40311000	-0.05593000	-0.16664200	0.21868400	-0.09796000	2.66921800	1.00416800	-0.02404200	-0.03265100	0.07596900
